<svg width="1200" height="1200" viewBox="0 0 1200 1200" fill="none" xmlns="http://www.w3.org/2000/svg">
<g clip-path="url(#clip0_200_587)">
<path d="M12 398.4C12 316.653 16.3958 251.782 27.8276 200.344C39.2291 149.041 57.4691 111.84 84.6544 84.6544C111.84 57.4691 149.041 39.2291 200.344 27.8276C251.782 16.3958 316.653 12 398.4 12H801.6C883.347 12 948.218 16.3958 999.656 27.8276C1050.96 39.2291 1088.16 57.4691 1115.35 84.6544C1142.53 111.84 1160.77 149.041 1172.17 200.344C1183.6 251.782 1188 316.653 1188 398.4V801.6C1188 883.347 1183.6 948.218 1172.17 999.656C1160.77 1050.96 1142.53 1088.16 1115.35 1115.35C1088.16 1142.53 1050.96 1160.77 999.656 1172.17C948.218 1183.6 883.347 1188 801.6 1188H398.4C316.653 1188 251.782 1183.6 200.344 1172.17C149.041 1160.77 111.84 1142.53 84.6544 1115.35C57.4691 1088.16 39.2291 1050.96 27.8276 999.656C16.3958 948.218 12 883.347 12 801.6V398.4Z" fill="#21201C" stroke="#F9F9F8" stroke-width="24"/>
<g filter="url(#filter0_d_200_587)">
<path fill-rule="evenodd" clip-rule="evenodd" d="M438 199H486H534V247H582V295H630V247H678V199H726H774V247H822V295H870V343V391H822V439H774V487H726V535H678V583H630V631H582V583H534V535H486V487H438V439H390V391H342V343V295H390V247H438V199Z" fill="#DD4425"/>
<path fill-rule="evenodd" clip-rule="evenodd" d="M336 616H288V664H240V712H288V760V808V856V904H240H192V952H240H288H336H384H432V904H384H336V856V808V760V712V664V616Z" fill="#F9F9F8"/>
<path fill-rule="evenodd" clip-rule="evenodd" d="M528 712H480V760V808V856V904H528V952H576H624H672H720V904V856V808V760V712H672V760V808V856V904H624H576H528V856V808V760V712Z" fill="#F9F9F8"/>
<path fill-rule="evenodd" clip-rule="evenodd" d="M816 712H768V760V808V856V904V952V1000H816V952V904H864H912H960V856H1008V808V760H960V712H912H864V760H816V712ZM864 760H912H960V808V856H912H864H816V808H864V760Z" fill="#F9F9F8"/>
</g>
</g>
<defs>
<filter id="filter0_d_200_587" x="192" y="199" width="828" height="813" filterUnits="userSpaceOnUse" color-interpolation-filters="sRGB">
<feFlood flood-opacity="0" result="BackgroundImageFix"/>
<feColorMatrix in="SourceAlpha" type="matrix" values="0 0 0 0 0 0 0 0 0 0 0 0 0 0 0 0 0 0 127 0" result="hardAlpha"/>
<feOffset dx="12" dy="12"/>
<feComposite in2="hardAlpha" operator="out"/>
<feColorMatrix type="matrix" values="0 0 0 0 0 0 0 0 0 0 0 0 0 0 0 0 0 0 1 0"/>
<feBlend mode="normal" in2="BackgroundImageFix" result="effect1_dropShadow_200_587"/>
<feBlend mode="normal" in="SourceGraphic" in2="effect1_dropShadow_200_587" result="shape"/>
</filter>
<clipPath id="clip0_200_587">
<rect width="1200" height="1200" fill="white"/>
</clipPath>
</defs>
</svg>
