<svg width="1200" height="1200" viewBox="0 0 1200 1200" fill="none" xmlns="http://www.w3.org/2000/svg">
<g clip-path="url(#clip0_246_1035)">
<path d="M398.4 12H801.6C883.346 12 948.218 16.3954 999.656 27.8271C1050.96 39.2286 1088.16 57.469 1115.35 84.6543C1142.53 111.84 1160.77 149.042 1172.17 200.344C1183.6 251.782 1188 316.654 1188 398.4V801.6C1188 883.346 1183.6 948.218 1172.17 999.656C1160.77 1050.96 1142.53 1088.16 1115.35 1115.35C1088.16 1142.53 1050.96 1160.77 999.656 1172.17C948.218 1183.6 883.346 1188 801.6 1188H398.4C316.654 1188 251.782 1183.6 200.344 1172.17C149.042 1160.77 111.84 1142.53 84.6543 1115.35C57.469 1088.16 39.2286 1050.96 27.8271 999.656C16.3954 948.218 12 883.346 12 801.6V398.4C12 316.654 16.3954 251.782 27.8271 200.344C39.2286 149.042 57.469 111.84 84.6543 84.6543C111.84 57.469 149.042 39.2286 200.344 27.8271C251.782 16.3954 316.654 12 398.4 12Z" fill="#21201C" stroke="#F9F9F8" stroke-width="24"/>
<g filter="url(#filter0_d_246_1035)">
<path d="M638.181 381.637H612.728V407.091H587.273V228.909H612.727V203.454H638.181V381.637ZM561.818 203.454H587.272V381.637H561.818V356.183H536.364V178H561.818V203.454ZM663.637 356.183H638.183V178H689.091V203.454H714.546V228.909H740V279.818H714.546V305.272H689.091V330.728H663.637V356.183ZM536.363 330.728H510.908V305.272H485.454V279.818H460V228.909H485.454V203.454H510.908V178H536.363V330.728Z" fill="#DD4425"/>
<g filter="url(#filter1_d_246_1035)">
<path d="M874.671 894.316C847.452 894.316 833.843 875.944 833.843 854.849C833.843 845.323 835.884 833.074 838.606 824.229L898.487 605.8C899.848 599.676 900.528 594.233 900.528 590.15C900.528 576.541 893.724 570.417 881.475 570.417C833.162 570.417 748.785 675.208 721.567 783.401L695.709 886.151H641.272L758.312 418.674H697.07L702.514 394.858L824.997 369L748.105 667.042L753.549 669.083C792.335 598.996 833.162 526.867 899.167 526.867C937.953 526.867 954.965 550.683 954.965 583.345C954.965 594.233 952.924 605.8 949.521 618.049L886.919 850.086L899.167 855.53L977.42 777.277L993.751 790.205L945.439 846.684C913.457 884.79 893.724 894.316 874.671 894.316Z" fill="white"/>
<path d="M207 1022.24L213.805 994.344H262.798L366.908 576.541H305.667L311.111 552.725L432.913 526.867L398.21 662.959L403.653 665.001C440.398 586.067 476.463 526.867 533.621 526.867C579.893 526.867 600.307 562.251 600.307 625.534C600.307 736.449 534.302 894.316 424.748 894.316C388.683 894.316 368.269 880.707 358.062 847.364H351.938L317.915 994.344H380.518L373.713 1022.24H207ZM410.458 859.613C458.771 859.613 503.001 814.702 525.456 731.686C532.941 703.107 543.148 650.711 543.148 625.534C543.148 590.15 537.704 570.417 515.929 570.417C454.688 570.417 385.281 728.284 371.672 774.555L368.95 784.081C356.701 827.631 370.991 859.613 410.458 859.613Z" fill="white"/>
</g>
</g>
</g>
<rect x="0.5" y="0.5" width="1199" height="1199" stroke="black"/>
<defs>
<filter id="filter0_d_246_1035" x="207" y="178" width="798.751" height="856.243" filterUnits="userSpaceOnUse" color-interpolation-filters="sRGB">
<feFlood flood-opacity="0" result="BackgroundImageFix"/>
<feColorMatrix in="SourceAlpha" type="matrix" values="0 0 0 0 0 0 0 0 0 0 0 0 0 0 0 0 0 0 127 0" result="hardAlpha"/>
<feOffset dx="12" dy="12"/>
<feComposite in2="hardAlpha" operator="out"/>
<feColorMatrix type="matrix" values="0 0 0 0 0 0 0 0 0 0 0 0 0 0 0 0 0 0 1 0"/>
<feBlend mode="normal" in2="BackgroundImageFix" result="effect1_dropShadow_246_1035"/>
<feBlend mode="normal" in="SourceGraphic" in2="effect1_dropShadow_246_1035" result="shape"/>
</filter>
<filter id="filter1_d_246_1035" x="207" y="369" width="798.751" height="665.243" filterUnits="userSpaceOnUse" color-interpolation-filters="sRGB">
<feFlood flood-opacity="0" result="BackgroundImageFix"/>
<feColorMatrix in="SourceAlpha" type="matrix" values="0 0 0 0 0 0 0 0 0 0 0 0 0 0 0 0 0 0 127 0" result="hardAlpha"/>
<feOffset dx="12" dy="12"/>
<feComposite in2="hardAlpha" operator="out"/>
<feColorMatrix type="matrix" values="0 0 0 0 0 0 0 0 0 0 0 0 0 0 0 0 0 0 1 0"/>
<feBlend mode="normal" in2="BackgroundImageFix" result="effect1_dropShadow_246_1035"/>
<feBlend mode="normal" in="SourceGraphic" in2="effect1_dropShadow_246_1035" result="shape"/>
</filter>
<clipPath id="clip0_246_1035">
<rect width="1200" height="1200" fill="white"/>
</clipPath>
</defs>
</svg>
