<svg width="528" height="432" viewBox="0 0 528 432" fill="none" xmlns="http://www.w3.org/2000/svg">
<rect y="96" width="48" height="48" fill="#5C271F"/>
<rect y="144" width="48" height="48" fill="#5C271F"/>
<rect x="48" y="48" width="48" height="48" fill="#5C271F"/>
<rect x="48" y="96" width="48" height="48" fill="#5C271F"/>
<rect x="48" y="144" width="48" height="48" fill="#D13415"/>
<rect x="48" y="192" width="48" height="48" fill="#5C271F"/>
<rect x="96" y="48" width="48" height="48" fill="#5C271F"/>
<rect x="96" width="48" height="48" fill="#5C271F"/>
<rect x="96" y="96" width="48" height="48" fill="#D13415"/>
<rect x="96" y="144" width="48" height="48" fill="#D13415"/>
<rect x="96" y="192" width="48" height="48" fill="#D13415"/>
<rect x="96" y="240" width="48" height="48" fill="#5C271F"/>
<rect x="144" y="48" width="48" height="48" fill="#D13415"/>
<rect x="144" width="48" height="48" fill="#5C271F"/>
<rect x="144" y="96" width="48" height="48" fill="#D13415"/>
<rect x="144" y="144" width="48" height="48" fill="#DD4425"/>
<rect x="144" y="192" width="48" height="48" fill="#D13415"/>
<rect x="144" y="240" width="48" height="48" fill="#D13415"/>
<rect x="144" y="288" width="48" height="48" fill="#5C271F"/>
<rect x="192" y="48" width="48" height="48" fill="#D13415"/>
<rect x="192" y="96" width="48" height="48" fill="#DD4425"/>
<rect x="192" y="144" width="48" height="48" fill="#DD4425"/>
<rect x="192" y="192" width="48" height="48" fill="#DD4425"/>
<rect x="192" y="240" width="48" height="48" fill="#D13415"/>
<rect x="192" y="288" width="48" height="48" fill="#D13415"/>
<rect x="192" y="336" width="48" height="48" fill="#5C271F"/>
<rect x="240" y="96" width="48" height="48" fill="#DD4425"/>
<rect x="240" y="144" width="48" height="48" fill="#E54D2E"/>
<rect x="240" y="192" width="48" height="48" fill="#DD4425"/>
<rect x="240" y="240" width="48" height="48" fill="#DD4425"/>
<rect x="240" y="288" width="48" height="48" fill="#D13415"/>
<rect x="240" y="336" width="48" height="48" fill="#D13415"/>
<rect x="240" y="384" width="48" height="48" fill="#5C271F"/>
<rect x="288" y="48" width="48" height="48" fill="#DD4425"/>
<rect x="288" y="96" width="48" height="48" fill="#E54D2E"/>
<rect x="288" y="144" width="48" height="48" fill="#E54D2E"/>
<rect x="288" y="192" width="48" height="48" fill="#E54D2E"/>
<rect x="288" y="240" width="48" height="48" fill="#DD4425"/>
<rect x="288" y="288" width="48" height="48" fill="#DD4425"/>
<rect x="288" y="336" width="48" height="48" fill="#D13415"/>
<rect x="336" y="48" width="48" height="48" fill="#E54D2E"/>
<rect x="336" width="48" height="48" fill="#DD4425"/>
<rect x="384" y="48" width="48" height="48" fill="#DD4425"/>
<rect x="384" width="48" height="48" fill="#DD4425"/>
<rect x="432" y="48" width="48" height="48" fill="#DD4425"/>
<rect x="336" y="96" width="48" height="48" fill="#E54D2E"/>
<rect x="384" y="96" width="48" height="48" fill="#E54D2E"/>
<rect x="432" y="96" width="48" height="48" fill="#DD4425"/>
<rect x="480" y="96" width="48" height="48" fill="#DD4425"/>
<rect x="336" y="144" width="48" height="48" fill="#DD4425"/>
<rect x="384" y="144" width="48" height="48" fill="#E54D2E"/>
<rect x="432" y="144" width="48" height="48" fill="#E54D2E"/>
<rect x="480" y="144" width="48" height="48" fill="#DD4425"/>
<rect x="336" y="192" width="48" height="48" fill="#E54D2E"/>
<rect x="384" y="192" width="48" height="48" fill="#E54D2E"/>
<rect x="432" y="192" width="48" height="48" fill="#DD4425"/>
<rect x="336" y="240" width="48" height="48" fill="#E54D2E"/>
<rect x="384" y="240" width="48" height="48" fill="#DD4425"/>
<rect x="336" y="288" width="48" height="48" fill="#DD4425"/>
</svg>
